<svg width="1710" height="191" viewBox="0 0 1710 191" fill="none" xmlns="http://www.w3.org/2000/svg">
<path fill-rule="evenodd" clip-rule="evenodd" d="M0 155.422L70.3247 138.569C144.351 121.716 285 86.1373 429.351 104.863C570 121.716 714.351 191 855 191C999.351 191 1140 121.716 1284.35 95.5C1425 69.2843 1569.35 86.1373 1639.68 95.5L1710 104.863V0H1639.68C1569.35 0 1425 0 1284.35 0C1140 0 999.351 0 855 0C714.351 0 570 0 429.351 0C285 0 144.351 0 70.3247 0H0V155.422Z" fill="#FF9212" fill-opacity="0.25"/>
</svg>
