<svg width="20" height="29" viewBox="0 0 20 29" fill="none" xmlns="http://www.w3.org/2000/svg">
<path d="M10 20.6125C12.4556 18.6292 14.309 16.7226 15.5604 14.8927C16.8118 13.0628 17.4375 11.3569 17.4375 9.775C17.4375 8.38194 17.1837 7.20139 16.676 6.23333C16.1684 5.26528 15.5427 4.47431 14.799 3.86042C14.0552 3.24653 13.2465 2.80382 12.3729 2.53229C11.4993 2.26076 10.7083 2.125 10 2.125C9.29167 2.125 8.50069 2.26076 7.62708 2.53229C6.75347 2.80382 5.94479 3.24653 5.20104 3.86042C4.45729 4.47431 3.8316 5.26528 3.32396 6.23333C2.81632 7.20139 2.5625 8.38194 2.5625 9.775C2.5625 11.3569 3.18819 13.0628 4.43958 14.8927C5.69097 16.7226 7.54444 18.6292 10 20.6125ZM10 23.3042C6.76528 20.8722 4.36285 18.5465 2.79271 16.3271C1.22257 14.1076 0.4375 11.9236 0.4375 9.775C0.4375 8.16944 0.726736 6.75868 1.30521 5.54271C1.88368 4.32674 2.63333 3.30556 3.55417 2.47917C4.475 1.65278 5.50208 1.03299 6.63542 0.619792C7.76875 0.206597 8.89028 0 10 0C11.1097 0 12.2312 0.206597 13.3646 0.619792C14.4979 1.03299 15.525 1.65278 16.4458 2.47917C17.3667 3.30556 18.1163 4.32674 18.6948 5.54271C19.2733 6.75868 19.5625 8.16944 19.5625 9.775C19.5625 11.9236 18.7774 14.1076 17.2073 16.3271C15.6372 18.5465 13.2347 20.8722 10 23.3042ZM10 12.0417C10.6847 12.0417 11.2691 11.7997 11.7531 11.3156C12.2372 10.8316 12.4792 10.2472 12.4792 9.5625C12.4792 8.87778 12.2372 8.2934 11.7531 7.80937C11.2691 7.32535 10.6847 7.08333 10 7.08333C9.31528 7.08333 8.7309 7.32535 8.24687 7.80937C7.76285 8.2934 7.52083 8.87778 7.52083 9.5625C7.52083 10.2472 7.76285 10.8316 8.24687 11.3156C8.7309 11.7997 9.31528 12.0417 10 12.0417ZM0.4375 28.3333V26.2083H19.5625V28.3333H0.4375Z" fill="#007FFF"/>
</svg>
