<svg width="41" height="40" viewBox="0 0 41 40" fill="none" xmlns="http://www.w3.org/2000/svg">
<path d="M7.86871 30.7812C9.92496 29.3757 11.9649 28.2976 13.9885 27.5469C16.0121 26.7962 18.1826 26.4208 20.5 26.4208C22.8173 26.4208 24.996 26.7962 27.0359 27.5469C29.0758 28.2976 31.1239 29.3757 33.1802 30.7812C34.6163 29.0562 35.6362 27.3153 36.2401 25.5583C36.8439 23.8014 37.1458 21.9486 37.1458 20C37.1458 15.3681 35.5546 11.4948 32.3724 8.38021C29.1901 5.26562 25.2326 3.70833 20.5 3.70833C15.7673 3.70833 11.8099 5.26562 8.62756 8.38021C5.44527 11.4948 3.85413 15.3681 3.85413 20C3.85413 21.9486 4.1642 23.8014 4.78433 25.5583C5.40447 27.3153 6.4326 29.0562 7.86871 30.7812ZM20.5 21.4375C18.6069 21.4375 17.0158 20.8066 15.7265 19.5448C14.4373 18.283 13.7927 16.7257 13.7927 14.8729C13.7927 13.0201 14.4373 11.4628 15.7265 10.201C17.0158 8.93923 18.6069 8.30833 20.5 8.30833C22.393 8.30833 23.9842 8.93923 25.2734 10.201C26.5626 11.4628 27.2073 13.0201 27.2073 14.8729C27.2073 16.7257 26.5626 18.283 25.2734 19.5448C23.9842 20.8066 22.393 21.4375 20.5 21.4375ZM20.5 39.1667C17.8236 39.1667 15.2941 38.6635 12.9114 37.6573C10.5288 36.651 8.44805 35.2774 6.66923 33.5365C4.89041 31.7955 3.48694 29.759 2.45881 27.4271C1.43069 25.0951 0.916626 22.6194 0.916626 20C0.916626 17.3486 1.43069 14.8649 2.45881 12.549C3.48694 10.233 4.89041 8.20451 6.66923 6.46354C8.44805 4.72257 10.5288 3.34896 12.9114 2.34271C15.2941 1.33646 17.8236 0.833332 20.5 0.833332C23.209 0.833332 25.7467 1.33646 28.113 2.34271C30.4793 3.34896 32.5519 4.72257 34.3307 6.46354C36.1095 8.20451 37.513 10.233 38.5411 12.549C39.5692 14.8649 40.0833 17.3486 40.0833 20C40.0833 22.6194 39.5692 25.0951 38.5411 27.4271C37.513 29.759 36.1095 31.7955 34.3307 33.5365C32.5519 35.2774 30.4793 36.651 28.113 37.6573C25.7467 38.6635 23.209 39.1667 20.5 39.1667ZM20.5 36.2917C22.2951 36.2917 24.0494 36.0361 25.763 35.525C27.4765 35.0139 29.1656 34.1194 30.8302 32.8417C29.1656 31.6917 27.4684 30.8132 25.7385 30.2062C24.0086 29.5993 22.2625 29.2958 20.5 29.2958C18.7375 29.2958 16.9913 29.5993 15.2614 30.2062C13.5316 30.8132 11.8343 31.6917 10.1698 32.8417C11.8343 34.1194 13.5234 35.0139 15.2369 35.525C16.9505 36.0361 18.7048 36.2917 20.5 36.2917ZM20.5 18.5625C21.6097 18.5625 22.5154 18.2191 23.2171 17.5323C23.9189 16.8455 24.2698 15.959 24.2698 14.8729C24.2698 13.7868 23.9189 12.9003 23.2171 12.2135C22.5154 11.5267 21.6097 11.1833 20.5 11.1833C19.3902 11.1833 18.4845 11.5267 17.7828 12.2135C17.081 12.9003 16.7302 13.7868 16.7302 14.8729C16.7302 15.959 17.081 16.8455 17.7828 17.5323C18.4845 18.2191 19.3902 18.5625 20.5 18.5625Z" fill="#ABA9AA"/>
</svg>
