<svg width="29" height="30" viewBox="0 0 29 30" fill="none" xmlns="http://www.w3.org/2000/svg">
<path d="M27.1875 29.167C23.9116 29.167 20.6558 28.3614 17.4201 26.7503C14.1845 25.1392 11.2778 23.0448 8.7 20.467C6.12222 17.8892 4.02778 14.9825 2.41667 11.7469C0.805556 8.51121 0 5.25542 0 1.97949C0 1.46931 0.174537 1.03968 0.523611 0.690603C0.872685 0.341529 1.30231 0.166992 1.8125 0.166992H7.45139C7.82732 0.166992 8.15625 0.294538 8.4382 0.549631C8.72014 0.804724 8.90139 1.14708 8.98194 1.57671L10.0694 6.65171C10.1231 7.02764 10.1164 7.37 10.0493 7.6788C9.98218 7.98759 9.8412 8.2494 9.62639 8.46421L5.59861 12.5323C7.10231 15.0295 8.78727 17.2045 10.6535 19.0573C12.5197 20.91 14.6343 22.4809 16.9972 23.7698L20.8236 19.8225C21.0921 19.5272 21.4009 19.3191 21.75 19.1982C22.0991 19.0774 22.4481 19.0573 22.7972 19.1378L27.5903 20.185C27.9931 20.2656 28.3287 20.467 28.5972 20.7892C28.8657 21.1114 29 21.4874 29 21.917V27.3545C29 27.8647 28.8255 28.2943 28.4764 28.6434C28.1273 28.9925 27.6977 29.167 27.1875 29.167ZM4.39028 10.317L7.65278 7.01421L6.72639 2.58366H2.41667C2.41667 3.63088 2.57778 4.7788 2.9 6.02741C3.22222 7.27602 3.71898 8.70588 4.39028 10.317ZM19.2528 24.9378C20.3537 25.448 21.5486 25.8642 22.8375 26.1864C24.1264 26.5087 25.375 26.6966 26.5833 26.7503V22.4406L22.4347 21.5948L19.2528 24.9378Z" fill="#007FFF"/>
</svg>
