<svg width="1710" height="318" viewBox="0 0 1710 318" fill="none" xmlns="http://www.w3.org/2000/svg">
<path fill-rule="evenodd" clip-rule="evenodd" d="M0 59.2353L70.3247 87.2941C144.351 115.353 285 174.588 429.351 143.412C570 115.353 714.351 0 855 0C999.351 0 1140 115.353 1284.35 159C1425 202.647 1569.35 174.588 1639.68 159L1710 143.412V318H1639.68C1569.35 318 1425 318 1284.35 318C1140 318 999.351 318 855 318C714.351 318 570 318 429.351 318C285 318 144.351 318 70.3247 318H0V59.2353Z" fill="#FF9212" fill-opacity="0.25"/>
</svg>
